EBGaramondVF-Compressed_Ultralight.ufo
<glyph name="dollar" format="1">
  <advance width="244"/>
  <unicode hex="0024"/>
  <outline>
    <contour>
      <point x="116" y="-57" type="curve" smooth="yes"/>
      <point x="119" y="9" type="line" smooth="yes"/>
      <point x="118" y="15"/>
      <point x="123" y="18"/>
      <point x="127" y="19" type="curve" smooth="yes"/>
      <point x="174" y="30"/>
      <point x="220" y="95"/>
      <point x="220" y="180" type="curve" smooth="yes"/>
      <point x="220" y="244"/>
      <point x="202" y="280"/>
      <point x="143" y="344" type="curve"/>
      <point x="143" y="344"/>
      <point x="140" y="350"/>
      <point x="140" y="357" type="curve" smooth="yes"/>
      <point x="154" y="571" type="line"/>
      <point x="154" y="575"/>
      <point x="157" y="577"/>
      <point x="159" y="576" type="curve" smooth="yes"/>
      <point x="168" y="580"/>
      <point x="181" y="532"/>
      <point x="185" y="503" type="curve" smooth="yes"/>
      <point x="185" y="498"/>
      <point x="189" y="490"/>
      <point x="200" y="490" type="curve" smooth="yes"/>
      <point x="209" y="490"/>
      <point x="216" y="497"/>
      <point x="216" y="504" type="curve" smooth="yes"/>
      <point x="216" y="538"/>
      <point x="210" y="566"/>
      <point x="202" y="587" type="curve" smooth="yes"/>
      <point x="200" y="593"/>
      <point x="196" y="599"/>
      <point x="191" y="605" type="curve" smooth="yes"/>
      <point x="187" y="611"/>
      <point x="173" y="620"/>
      <point x="160" y="620" type="curve" smooth="yes"/>
      <point x="158" y="622"/>
      <point x="157" y="622"/>
      <point x="157" y="627" type="curve" smooth="yes"/>
      <point x="156" y="642"/>
      <point x="161" y="695"/>
      <point x="161" y="709" type="curve"/>
      <point x="160" y="716"/>
      <point x="157" y="721"/>
      <point x="153" y="721" type="curve" smooth="yes"/>
      <point x="145" y="721"/>
      <point x="138" y="718"/>
      <point x="138" y="705" type="curve" smooth="yes"/>
      <point x="136" y="640" type="line" smooth="yes"/>
      <point x="136" y="636"/>
      <point x="136" y="633"/>
      <point x="132" y="632" type="curve" smooth="yes"/>
      <point x="57" y="629"/>
      <point x="36" y="560"/>
      <point x="36" y="498" type="curve" smooth="yes"/>
      <point x="36" y="443"/>
      <point x="66" y="383"/>
      <point x="108" y="332" type="curve" smooth="yes"/>
      <point x="109" y="328"/>
      <point x="115" y="321"/>
      <point x="114" y="306" type="curve" smooth="yes"/>
      <point x="99" y="69" type="line" smooth="yes"/>
      <point x="98" y="62"/>
      <point x="93" y="58"/>
      <point x="90" y="62" type="curve"/>
      <point x="80" y="84"/>
      <point x="64" y="115"/>
      <point x="53" y="175" type="curve" smooth="yes"/>
      <point x="51" y="180"/>
      <point x="47" y="186"/>
      <point x="39" y="186" type="curve" smooth="yes"/>
      <point x="31" y="186"/>
      <point x="23" y="179"/>
      <point x="23" y="171" type="curve"/>
      <point x="24" y="145"/>
      <point x="26" y="100"/>
      <point x="29" y="76" type="curve" smooth="yes"/>
      <point x="30" y="68"/>
      <point x="32" y="62"/>
      <point x="35" y="58" type="curve" smooth="yes"/>
      <point x="46" y="40"/>
      <point x="71" y="24"/>
      <point x="88" y="21" type="curve" smooth="yes"/>
      <point x="91" y="21"/>
      <point x="95" y="17"/>
      <point x="96" y="12" type="curve"/>
      <point x="93" y="-57" type="line" smooth="yes"/>
      <point x="93" y="-65"/>
      <point x="98" y="-72"/>
      <point x="103" y="-71" type="curve" smooth="yes"/>
      <point x="109" y="-70"/>
      <point x="115" y="-66"/>
    </contour>
    <contour>
      <point x="119" y="42" type="curve"/>
      <point x="131" y="249" type="line" smooth="yes"/>
      <point x="132" y="257"/>
      <point x="137" y="260"/>
      <point x="140" y="255" type="curve"/>
      <point x="185" y="217"/>
      <point x="190" y="188"/>
      <point x="190" y="162" type="curve" smooth="yes"/>
      <point x="190" y="92"/>
      <point x="163" y="28"/>
      <point x="131" y="32" type="curve"/>
      <point x="121" y="32"/>
      <point x="118" y="37"/>
    </contour>
    <contour>
      <point x="55" y="504" type="curve" smooth="yes"/>
      <point x="55" y="573"/>
      <point x="89" y="624"/>
      <point x="124" y="620" type="curve"/>
      <point x="129" y="620"/>
      <point x="135" y="618"/>
      <point x="134" y="610" type="curve"/>
      <point x="119" y="401" type="line"/>
      <point x="119" y="392"/>
      <point x="114" y="391"/>
      <point x="113" y="397" type="curve"/>
      <point x="81" y="423"/>
      <point x="55" y="465"/>
    </contour>
  </outline>
</glyph>
<glyph name="plus" format="1">
  <advance width="312"/>
  <unicode hex="002B"/>
  <outline>
    <contour>
      <point x="170" y="121" type="curve" smooth="yes"/>
      <point x="170" y="227" type="line" smooth="yes"/>
      <point x="170" y="228"/>
      <point x="170" y="229"/>
      <point x="171" y="229" type="curve" smooth="yes"/>
      <point x="255" y="229" type="line" smooth="yes"/>
      <point x="274" y="229"/>
      <point x="286" y="248"/>
      <point x="286" y="256" type="curve" smooth="yes"/>
      <point x="286" y="259"/>
      <point x="280" y="262"/>
      <point x="273" y="262" type="curve" smooth="yes"/>
      <point x="171" y="262" type="line" smooth="yes"/>
      <point x="170" y="262"/>
      <point x="170" y="262"/>
      <point x="170" y="265" type="curve" smooth="yes"/>
      <point x="170" y="372" type="line" smooth="yes"/>
      <point x="170" y="376"/>
      <point x="166" y="380"/>
      <point x="162" y="380" type="curve" smooth="yes"/>
      <point x="159" y="380"/>
      <point x="140" y="374"/>
      <point x="140" y="361" type="curve" smooth="yes"/>
      <point x="140" y="265" type="line" smooth="yes"/>
      <point x="140" y="262"/>
      <point x="139" y="262"/>
      <point x="136" y="262" type="curve" smooth="yes"/>
      <point x="49" y="262" type="line" smooth="yes"/>
      <point x="31" y="262"/>
      <point x="25" y="240"/>
      <point x="25" y="235" type="curve" smooth="yes"/>
      <point x="25" y="232"/>
      <point x="32" y="229"/>
      <point x="39" y="229" type="curve" smooth="yes"/>
      <point x="138" y="229" type="line" smooth="yes"/>
      <point x="139" y="229"/>
      <point x="140" y="228"/>
      <point x="140" y="226" type="curve" smooth="yes"/>
      <point x="140" y="115" type="line" smooth="yes"/>
      <point x="140" y="110"/>
      <point x="143" y="106"/>
      <point x="146" y="106" type="curve" smooth="yes"/>
      <point x="150" y="106"/>
      <point x="170" y="108"/>
    </contour>
  </outline>
</glyph>
<glyph name="comma" format="1">
  <advance width="197"/>
  <unicode hex="002C"/>
  <outline>
    <contour>
      <point x="161" y="-1" type="curve" smooth="yes"/>
      <point x="161" y="-21"/>
      <point x="116" y="-30"/>
      <point x="58" y="-30" type="curve" smooth="yes"/>
      <point x="41" y="-30"/>
      <point x="28" y="-40"/>
      <point x="28" y="-54" type="curve" smooth="yes"/>
      <point x="28" y="-66"/>
      <point x="39" y="-74"/>
      <point x="57" y="-78" type="curve" smooth="yes"/>
      <point x="96" y="-82"/>
      <point x="149" y="-61"/>
      <point x="149" y="-18" type="curve" smooth="yes"/>
      <point x="149" y="3"/>
      <point x="98" y="6"/>
      <point x="54" y="7" type="curve" smooth="yes"/>
      <point x="42" y="7"/>
      <point x="33" y="0"/>
      <point x="33" y="-8" type="curve" smooth="yes"/>
      <point x="33" y="-17"/>
      <point x="42" y="-23"/>
      <point x="57" y="-24" type="curve" smooth="yes"/>
      <point x="105" y="-27"/>
      <point x="161" y="-14"/>
    </contour>
  </outline>
</glyph>
<glyph name="three" format="1">
  <advance width="228"/>
  <unicode hex="0033"/>
  <outline>
    <contour>
      <point x="204" y="187" type="curve" smooth="yes"/>
      <point x="204" y="276"/>
      <point x="163" y="347"/>
      <point x="121" y="347" type="curve" smooth="yes"/>
      <point x="118" y="347"/>
      <point x="118" y="351"/>
      <point x="121" y="353" type="curve"/>
      <point x="161" y="397"/>
      <point x="179" y="455"/>
      <point x="179" y="503" type="curve" smooth="yes"/>
      <point x="179" y="576"/>
      <point x="151" y="630"/>
      <point x="100" y="630" type="curve" smooth="yes"/>
      <point x="39" y="630"/>
      <point x="16" y="540"/>
      <point x="16" y="500" type="curve" smooth="yes"/>
      <point x="16" y="490"/>
      <point x="16" y="484"/>
      <point x="20" y="484" type="curve" smooth="yes"/>
      <point x="22" y="484"/>
      <point x="30" y="573"/>
      <point x="86" y="573" type="curve" smooth="yes"/>
      <point x="118" y="573"/>
      <point x="140" y="535"/>
      <point x="140" y="470" type="curve" smooth="yes"/>
      <point x="140" y="387"/>
      <point x="92" y="336"/>
      <point x="81" y="327" type="curve" smooth="yes"/>
      <point x="75" y="321"/>
      <point x="68" y="314"/>
      <point x="67" y="299" type="curve" smooth="yes"/>
      <point x="67" y="293"/>
      <point x="69" y="289"/>
      <point x="75" y="295" type="curve" smooth="yes"/>
      <point x="84" y="308"/>
      <point x="98" y="311"/>
      <point x="105" y="311" type="curve" smooth="yes"/>
      <point x="141" y="311"/>
      <point x="164" y="228"/>
      <point x="164" y="150" type="curve" smooth="yes"/>
      <point x="164" y="61"/>
      <point x="139" y="-12"/>
      <point x="90" y="-12" type="curve" smooth="yes"/>
      <point x="71" y="-12"/>
      <point x="64" y="10"/>
      <point x="53" y="27" type="curve" smooth="yes"/>
      <point x="46" y="39"/>
      <point x="37" y="49"/>
      <point x="28" y="49" type="curve" smooth="yes"/>
      <point x="19" y="51"/>
      <point x="0" y="27"/>
      <point x="0" y="11" type="curve" smooth="yes"/>
      <point x="0" y="-8"/>
      <point x="37" y="-38"/>
      <point x="62" y="-38" type="curve" smooth="yes"/>
      <point x="131" y="-38"/>
      <point x="204" y="41"/>
    </contour>
  </outline>
</glyph>
<glyph name="four" format="1">
  <advance width="228"/>
  <unicode hex="0034"/>
  <outline>
    <contour>
      <point x="172" y="2" type="curve" smooth="yes"/>
      <point x="204" y="2"/>
      <point x="218" y="-5"/>
      <point x="231" y="-5" type="curve" smooth="yes"/>
      <point x="239" y="-5"/>
      <point x="240" y="1"/>
      <point x="240" y="4" type="curve" smooth="yes"/>
      <point x="240" y="8"/>
      <point x="235" y="11"/>
      <point x="231" y="12" type="curve" smooth="yes"/>
      <point x="205" y="14"/>
      <point x="191" y="28"/>
      <point x="191" y="61" type="curve" smooth="yes"/>
      <point x="191" y="184" type="line" smooth="yes"/>
      <point x="191" y="186"/>
      <point x="192" y="188"/>
      <point x="195" y="190" type="curve"/>
      <point x="197" y="191"/>
      <point x="201" y="192"/>
      <point x="206" y="192" type="curve" smooth="yes"/>
      <point x="213" y="192"/>
      <point x="220" y="191"/>
      <point x="225" y="191" type="curve" smooth="yes"/>
      <point x="227" y="191"/>
      <point x="233" y="198"/>
      <point x="233" y="214" type="curve" smooth="yes"/>
      <point x="233" y="221"/>
      <point x="232" y="225"/>
      <point x="229" y="225" type="curve"/>
      <point x="223" y="225"/>
      <point x="218" y="224"/>
      <point x="213" y="224" type="curve" smooth="yes"/>
      <point x="207" y="224"/>
      <point x="201" y="224"/>
      <point x="196" y="224" type="curve"/>
      <point x="194" y="224"/>
      <point x="192" y="227"/>
      <point x="192" y="230" type="curve" smooth="yes"/>
      <point x="192" y="314" type="line" smooth="yes"/>
      <point x="192" y="356"/>
      <point x="192" y="378"/>
      <point x="192" y="378" type="curve" smooth="yes"/>
      <point x="194" y="378"/>
      <point x="152" y="376"/>
      <point x="152" y="365" type="curve"/>
      <point x="153" y="361"/>
      <point x="153" y="357"/>
      <point x="153" y="343" type="curve" smooth="yes"/>
      <point x="153" y="233" type="line" smooth="yes"/>
      <point x="153" y="229"/>
      <point x="149" y="225"/>
      <point x="146" y="225" type="curve" smooth="yes"/>
      <point x="55" y="225" type="line" smooth="yes"/>
      <point x="53" y="225"/>
      <point x="54" y="231"/>
      <point x="55" y="234" type="curve" smooth="yes"/>
      <point x="205" y="630" type="line"/>
      <point x="208" y="634"/>
      <point x="206" y="642"/>
      <point x="204" y="642" type="curve" smooth="yes"/>
      <point x="191" y="642" type="line" smooth="yes"/>
      <point x="189" y="642"/>
      <point x="187" y="630"/>
      <point x="183" y="618" type="curve" smooth="yes"/>
      <point x="42" y="235" type="line" smooth="yes"/>
      <point x="35" y="217"/>
      <point x="30" y="213"/>
      <point x="27" y="194" type="curve"/>
      <point x="27" y="193"/>
      <point x="27" y="192"/>
      <point x="27" y="191" type="curve" smooth="yes"/>
      <point x="27" y="187"/>
      <point x="29" y="181"/>
      <point x="32" y="181" type="curve" smooth="yes"/>
      <point x="69" y="180"/>
      <point x="108" y="188"/>
      <point x="146" y="188" type="curve" smooth="yes"/>
      <point x="146" y="188"/>
      <point x="153" y="185"/>
      <point x="153" y="179" type="curve" smooth="yes"/>
      <point x="153" y="59" type="line" smooth="yes"/>
      <point x="153" y="31"/>
      <point x="142" y="14"/>
      <point x="108" y="13" type="curve" smooth="yes"/>
      <point x="103" y="13"/>
      <point x="99" y="10"/>
      <point x="99" y="5" type="curve" smooth="yes"/>
      <point x="99" y="0"/>
      <point x="102" y="-3"/>
      <point x="105" y="-3" type="curve" smooth="yes"/>
      <point x="124" y="-3"/>
      <point x="154" y="2"/>
    </contour>
  </outline>
</glyph>
<glyph name="less" format="1">
  <advance width="340"/>
  <unicode hex="003C"/>
  <outline>
    <contour>
      <point x="312" y="106" type="curve" smooth="yes"/>
      <point x="312" y="112"/>
      <point x="308" y="135"/>
      <point x="296" y="138" type="curve" smooth="yes"/>
      <point x="81" y="233" type="line"/>
      <point x="78" y="234"/>
      <point x="78" y="235"/>
      <point x="80" y="235" type="curve"/>
      <point x="292" y="344" type="line" smooth="yes"/>
      <point x="306" y="350"/>
      <point x="313" y="370"/>
      <point x="313" y="378" type="curve" smooth="yes"/>
      <point x="313" y="382"/>
      <point x="310" y="384"/>
      <point x="306" y="384" type="curve" smooth="yes"/>
      <point x="306" y="384"/>
      <point x="304" y="382"/>
      <point x="302" y="382" type="curve" smooth="yes"/>
      <point x="49" y="258" type="line" smooth="yes"/>
      <point x="36" y="252"/>
      <point x="27" y="234"/>
      <point x="27" y="228" type="curve" smooth="yes"/>
      <point x="27" y="224"/>
      <point x="43" y="214"/>
      <point x="55" y="210" type="curve" smooth="yes"/>
      <point x="298" y="100" type="line" smooth="yes"/>
      <point x="303" y="98"/>
      <point x="312" y="97"/>
    </contour>
  </outline>
</glyph>
<glyph name="question" format="1">
  <advance width="238"/>
  <unicode hex="003F"/>
  <outline>
    <contour>
      <point x="95" y="206" type="curve" smooth="yes"/>
      <point x="104" y="263"/>
      <point x="110" y="301"/>
      <point x="139" y="327" type="curve" smooth="yes"/>
      <point x="146" y="333"/>
      <point x="160" y="345"/>
      <point x="162" y="350" type="curve" smooth="yes"/>
      <point x="184" y="369"/>
      <point x="189" y="391"/>
      <point x="189" y="431" type="curve" smooth="yes"/>
      <point x="189" y="479"/>
      <point x="173" y="558"/>
      <point x="139" y="611" type="curve" smooth="yes"/>
      <point x="115" y="642"/>
      <point x="91" y="661"/>
      <point x="69" y="661" type="curve" smooth="yes"/>
      <point x="56" y="661"/>
      <point x="40" y="647"/>
      <point x="40" y="623" type="curve" smooth="yes"/>
      <point x="40" y="590"/>
      <point x="51" y="569"/>
      <point x="65" y="569" type="curve" smooth="yes"/>
      <point x="71" y="569"/>
      <point x="75" y="570"/>
      <point x="79" y="571" type="curve" smooth="yes"/>
      <point x="83" y="572"/>
      <point x="87" y="573"/>
      <point x="93" y="573" type="curve" smooth="yes"/>
      <point x="148" y="572"/>
      <point x="181" y="531"/>
      <point x="181" y="478" type="curve" smooth="yes"/>
      <point x="181" y="442"/>
      <point x="166" y="407"/>
      <point x="124" y="373" type="curve" smooth="yes"/>
      <point x="59" y="318"/>
      <point x="57" y="301"/>
      <point x="57" y="277" type="curve" smooth="yes"/>
      <point x="57" y="243"/>
      <point x="69" y="224"/>
      <point x="74" y="206" type="curve" smooth="yes"/>
      <point x="79" y="192"/>
      <point x="82" y="181"/>
      <point x="87" y="181" type="curve" smooth="yes"/>
      <point x="90" y="181"/>
      <point x="93" y="195"/>
    </contour>
    <contour>
      <point x="167" y="46" type="curve" smooth="yes"/>
      <point x="167" y="79"/>
      <point x="140" y="106"/>
      <point x="107" y="106" type="curve" smooth="yes"/>
      <point x="74" y="106"/>
      <point x="47" y="79"/>
      <point x="47" y="46" type="curve" smooth="yes"/>
      <point x="47" y="13"/>
      <point x="74" y="-14"/>
      <point x="107" y="-14" type="curve" smooth="yes"/>
      <point x="140" y="-14"/>
      <point x="167" y="13"/>
    </contour>
  </outline>
</glyph>
<glyph name="at" format="1">
  <advance width="429"/>
  <unicode hex="0040"/>
  <outline>
    <contour>
      <point x="361" y="-20" type="curve" smooth="yes"/>
      <point x="365" y="-12"/>
      <point x="360" y="-10"/>
      <point x="356" y="-10" type="curve" smooth="yes"/>
      <point x="354" y="-10"/>
      <point x="350" y="-13"/>
      <point x="347" y="-18" type="curve" smooth="yes"/>
      <point x="300" y="-82"/>
      <point x="248" y="-109"/>
      <point x="215" y="-109" type="curve" smooth="yes"/>
      <point x="141" y="-109"/>
      <point x="59" y="-23"/>
      <point x="59" y="174" type="curve" smooth="yes"/>
      <point x="59" y="355"/>
      <point x="138" y="460"/>
      <point x="225" y="460" type="curve" smooth="yes"/>
      <point x="324" y="460"/>
      <point x="364" y="360"/>
      <point x="364" y="218" type="curve" smooth="yes"/>
      <point x="364" y="129"/>
      <point x="321" y="71"/>
      <point x="269" y="71" type="curve" smooth="yes"/>
      <point x="258" y="71"/>
      <point x="253" y="84"/>
      <point x="253" y="98" type="curve" smooth="yes"/>
      <point x="253" y="107"/>
      <point x="252" y="115"/>
      <point x="254" y="124" type="curve"/>
      <point x="267" y="256" type="line" smooth="yes"/>
      <point x="267" y="272"/>
      <point x="273" y="310"/>
      <point x="277" y="333" type="curve"/>
      <point x="278" y="337"/>
      <point x="265" y="338"/>
      <point x="265" y="338" type="curve" smooth="yes"/>
      <point x="263" y="338"/>
      <point x="262" y="318"/>
      <point x="249" y="318" type="curve" smooth="yes"/>
      <point x="243" y="318"/>
      <point x="235" y="324"/>
      <point x="233" y="327" type="curve" smooth="yes"/>
      <point x="228" y="332"/>
      <point x="230" y="336"/>
      <point x="222" y="336" type="curve" smooth="yes"/>
      <point x="184" y="336"/>
      <point x="147" y="263"/>
      <point x="147" y="145" type="curve" smooth="yes"/>
      <point x="147" y="77"/>
      <point x="172" y="40"/>
      <point x="201" y="40" type="curve" smooth="yes"/>
      <point x="228" y="40"/>
      <point x="232" y="73"/>
      <point x="237" y="73" type="curve" smooth="yes"/>
      <point x="246" y="73"/>
      <point x="252" y="40"/>
      <point x="287" y="40" type="curve" smooth="yes"/>
      <point x="332" y="40"/>
      <point x="390" y="102"/>
      <point x="390" y="224" type="curve" smooth="yes"/>
      <point x="390" y="379"/>
      <point x="332" y="482"/>
      <point x="237" y="482" type="curve" smooth="yes"/>
      <point x="128" y="482"/>
      <point x="35" y="374"/>
      <point x="35" y="169" type="curve" smooth="yes"/>
      <point x="35" y="-20"/>
      <point x="104" y="-131"/>
      <point x="210" y="-131" type="curve" smooth="yes"/>
      <point x="272" y="-131"/>
      <point x="352" y="-59"/>
    </contour>
    <contour>
      <point x="180" y="161" type="curve" smooth="yes"/>
      <point x="182" y="264"/>
      <point x="204" y="317"/>
      <point x="222" y="317" type="curve" smooth="yes"/>
      <point x="237" y="317"/>
      <point x="245" y="296"/>
      <point x="245" y="257" type="curve" smooth="yes"/>
      <point x="245" y="253"/>
      <point x="245" y="249"/>
      <point x="245" y="245" type="curve"/>
      <point x="234" y="137" type="line" smooth="yes"/>
      <point x="231" y="104"/>
      <point x="226" y="94"/>
      <point x="222" y="85" type="curve" smooth="yes"/>
      <point x="216" y="71"/>
      <point x="210" y="63"/>
      <point x="202" y="63" type="curve" smooth="yes"/>
      <point x="190" y="63"/>
      <point x="178" y="85"/>
    </contour>
  </outline>
</glyph>
<glyph name="K" format="1">
  <advance width="295"/>
  <unicode hex="004B"/>
  <outline>
    <contour>
      <point x="83" y="2" type="curve" smooth="yes"/>
      <point x="102" y="2"/>
      <point x="110" y="-5"/>
      <point x="131" y="-5" type="curve" smooth="yes"/>
      <point x="138" y="-5"/>
      <point x="143" y="-3"/>
      <point x="143" y="1" type="curve" smooth="yes"/>
      <point x="143" y="7"/>
      <point x="138" y="10"/>
      <point x="128" y="12" type="curve" smooth="yes"/>
      <point x="107" y="17"/>
      <point x="99" y="27"/>
      <point x="100" y="65" type="curve" smooth="yes"/>
      <point x="98" y="190"/>
      <point x="98" y="219"/>
      <point x="98" y="282" type="curve" smooth="yes"/>
      <point x="98" y="289"/>
      <point x="97" y="303"/>
      <point x="100" y="303" type="curve" smooth="yes"/>
      <point x="102" y="303"/>
      <point x="108" y="294"/>
      <point x="112" y="286" type="curve"/>
      <point x="230" y="52" type="line" smooth="yes"/>
      <point x="234" y="44"/>
      <point x="236" y="38"/>
      <point x="235" y="32" type="curve" smooth="yes"/>
      <point x="234" y="23"/>
      <point x="224" y="19"/>
      <point x="205" y="16" type="curve"/>
      <point x="196" y="13"/>
      <point x="192" y="11"/>
      <point x="192" y="6" type="curve" smooth="yes"/>
      <point x="192" y="1"/>
      <point x="196" y="-1"/>
      <point x="200" y="-1" type="curve" smooth="yes"/>
      <point x="213" y="-1"/>
      <point x="228" y="0"/>
      <point x="236" y="0" type="curve" smooth="yes"/>
      <point x="251" y="0"/>
      <point x="279" y="-5"/>
      <point x="296" y="-5" type="curve" smooth="yes"/>
      <point x="300" y="-5"/>
      <point x="304" y="-3"/>
      <point x="304" y="2" type="curve" smooth="yes"/>
      <point x="304" y="7"/>
      <point x="299" y="11"/>
      <point x="289" y="13" type="curve" smooth="yes"/>
      <point x="291" y="15"/>
      <point x="280" y="23"/>
      <point x="256" y="71" type="curve" smooth="yes"/>
      <point x="115" y="365" type="line" smooth="yes"/>
      <point x="112" y="372"/>
      <point x="110" y="378"/>
      <point x="114" y="383" type="curve"/>
      <point x="148" y="460"/>
      <point x="204" y="536"/>
      <point x="239" y="599" type="curve" smooth="yes"/>
      <point x="252" y="631"/>
      <point x="232" y="636"/>
      <point x="260" y="636" type="curve" smooth="yes"/>
      <point x="272" y="638"/>
      <point x="277" y="643"/>
      <point x="277" y="648" type="curve" smooth="yes"/>
      <point x="277" y="653"/>
      <point x="273" y="655"/>
      <point x="267" y="655" type="curve" smooth="yes"/>
      <point x="262" y="655"/>
      <point x="264" y="651"/>
      <point x="239" y="651" type="curve" smooth="yes"/>
      <point x="207" y="651" type="line" smooth="yes"/>
      <point x="200" y="651"/>
      <point x="194" y="649"/>
      <point x="194" y="645" type="curve" smooth="yes"/>
      <point x="194" y="639"/>
      <point x="197" y="634"/>
      <point x="207" y="633" type="curve" smooth="yes"/>
      <point x="230" y="632"/>
      <point x="237" y="628"/>
      <point x="237" y="617" type="curve" smooth="yes"/>
      <point x="237" y="607"/>
      <point x="228" y="596"/>
      <point x="217" y="580" type="curve" smooth="yes"/>
      <point x="113" y="378" type="line"/>
      <point x="109" y="370"/>
      <point x="104" y="360"/>
      <point x="101" y="360" type="curve" smooth="yes"/>
      <point x="98" y="360"/>
      <point x="98" y="374"/>
      <point x="98" y="379" type="curve" smooth="yes"/>
      <point x="98" y="590" type="line" smooth="yes"/>
      <point x="98" y="613"/>
      <point x="99" y="628"/>
      <point x="123" y="633" type="curve" smooth="yes"/>
      <point x="135" y="636"/>
      <point x="139" y="642"/>
      <point x="139" y="647" type="curve" smooth="yes"/>
      <point x="139" y="651"/>
      <point x="133" y="653"/>
      <point x="126" y="653" type="curve" smooth="yes"/>
      <point x="103" y="653"/>
      <point x="101" y="651"/>
      <point x="83" y="651" type="curve" smooth="yes"/>
      <point x="64" y="651"/>
      <point x="57" y="653"/>
      <point x="31" y="653" type="curve" smooth="yes"/>
      <point x="24" y="653"/>
      <point x="17" y="651"/>
      <point x="17" y="646" type="curve" smooth="yes"/>
      <point x="17" y="641"/>
      <point x="22" y="636"/>
      <point x="32" y="634" type="curve" smooth="yes"/>
      <point x="58" y="630"/>
      <point x="60" y="618"/>
      <point x="60" y="585" type="curve" smooth="yes"/>
      <point x="60" y="60" type="line" smooth="yes"/>
      <point x="60" y="28"/>
      <point x="54" y="17"/>
      <point x="32" y="12" type="curve" smooth="yes"/>
      <point x="22" y="10"/>
      <point x="17" y="7"/>
      <point x="17" y="1" type="curve" smooth="yes"/>
      <point x="17" y="-3"/>
      <point x="24" y="-5"/>
      <point x="31" y="-5" type="curve" smooth="yes"/>
      <point x="57" y="-5"/>
      <point x="61" y="2"/>
    </contour>
  </outline>
</glyph>
<glyph name="M" format="1">
  <advance width="447"/>
  <unicode hex="004D"/>
  <outline>
    <contour>
      <point x="82" y="0" type="curve" smooth="yes"/>
      <point x="105" y="0"/>
      <point x="107" y="-5"/>
      <point x="140" y="-5" type="curve" smooth="yes"/>
      <point x="150" y="-5"/>
      <point x="158" y="-3"/>
      <point x="158" y="2" type="curve" smooth="yes"/>
      <point x="158" y="8"/>
      <point x="152" y="11"/>
      <point x="140" y="14" type="curve" smooth="yes"/>
      <point x="108" y="19"/>
      <point x="96" y="38"/>
      <point x="96" y="80" type="curve" smooth="yes"/>
      <point x="96" y="237"/>
      <point x="108" y="368"/>
      <point x="106" y="468" type="curve" smooth="yes"/>
      <point x="106" y="475"/>
      <point x="111" y="475"/>
      <point x="113" y="468" type="curve" smooth="yes"/>
      <point x="157" y="273"/>
      <point x="177" y="171"/>
      <point x="212" y="-4" type="curve" smooth="yes"/>
      <point x="214" y="-13"/>
      <point x="225" y="-12"/>
      <point x="227" y="-5" type="curve" smooth="yes"/>
      <point x="320" y="386" type="line" smooth="yes"/>
      <point x="322" y="399"/>
      <point x="328" y="400"/>
      <point x="328" y="386" type="curve"/>
      <point x="331" y="277"/>
      <point x="335" y="208"/>
      <point x="337" y="59" type="curve" smooth="yes"/>
      <point x="338" y="29"/>
      <point x="331" y="17"/>
      <point x="311" y="14" type="curve" smooth="yes"/>
      <point x="299" y="11"/>
      <point x="293" y="8"/>
      <point x="293" y="2" type="curve" smooth="yes"/>
      <point x="293" y="-3"/>
      <point x="300" y="-5"/>
      <point x="308" y="-5" type="curve" smooth="yes"/>
      <point x="335" y="-5"/>
      <point x="340" y="0"/>
      <point x="361" y="0" type="curve" smooth="yes"/>
      <point x="383" y="0"/>
      <point x="392" y="-5"/>
      <point x="419" y="-5" type="curve" smooth="yes"/>
      <point x="428" y="-5"/>
      <point x="433" y="-3"/>
      <point x="433" y="2" type="curve" smooth="yes"/>
      <point x="433" y="8"/>
      <point x="429" y="11"/>
      <point x="417" y="14" type="curve" smooth="yes"/>
      <point x="390" y="19"/>
      <point x="379" y="33"/>
      <point x="377" y="58" type="curve" smooth="yes"/>
      <point x="374" y="246"/>
      <point x="369" y="382"/>
      <point x="369" y="588" type="curve" smooth="yes"/>
      <point x="369" y="612"/>
      <point x="371" y="621"/>
      <point x="382" y="625" type="curve" smooth="yes"/>
      <point x="391" y="628"/>
      <point x="403" y="634"/>
      <point x="412" y="638" type="curve" smooth="yes"/>
      <point x="422" y="643"/>
      <point x="426" y="645"/>
      <point x="426" y="650" type="curve" smooth="yes"/>
      <point x="426" y="656"/>
      <point x="419" y="656"/>
      <point x="417" y="656" type="curve" smooth="yes"/>
      <point x="408" y="656"/>
      <point x="387" y="648"/>
      <point x="370" y="648" type="curve" smooth="yes"/>
      <point x="355" y="648" type="line" smooth="yes"/>
      <point x="354" y="648"/>
      <point x="351" y="643"/>
      <point x="351" y="635" type="curve" smooth="yes"/>
      <point x="349" y="614"/>
      <point x="342" y="572"/>
      <point x="337" y="550" type="curve"/>
      <point x="235" y="199" type="line" smooth="yes"/>
      <point x="233" y="189"/>
      <point x="230" y="192"/>
      <point x="228" y="202" type="curve" smooth="yes"/>
      <point x="143" y="571" type="line" smooth="yes"/>
      <point x="141" y="590"/>
      <point x="136" y="612"/>
      <point x="134" y="631" type="curve" smooth="yes"/>
      <point x="132" y="641"/>
      <point x="130" y="647"/>
      <point x="126" y="647" type="curve" smooth="yes"/>
      <point x="115" y="647"/>
      <point x="45" y="655"/>
      <point x="35" y="655" type="curve" smooth="yes"/>
      <point x="26" y="655"/>
      <point x="21" y="655"/>
      <point x="21" y="649" type="curve" smooth="yes"/>
      <point x="21" y="644"/>
      <point x="25" y="640"/>
      <point x="33" y="638" type="curve" smooth="yes"/>
      <point x="56" y="633"/>
      <point x="68" y="631"/>
      <point x="74" y="619" type="curve" smooth="yes"/>
      <point x="79" y="611"/>
      <point x="80" y="601"/>
      <point x="80" y="587" type="curve" smooth="yes"/>
      <point x="80" y="577"/>
      <point x="80" y="564"/>
      <point x="80" y="550" type="curve" smooth="yes"/>
      <point x="80" y="444"/>
      <point x="75" y="281"/>
      <point x="65" y="78" type="curve" smooth="yes"/>
      <point x="63" y="33"/>
      <point x="56" y="19"/>
      <point x="26" y="13" type="curve" smooth="yes"/>
      <point x="14" y="10"/>
      <point x="9" y="8"/>
      <point x="9" y="2" type="curve" smooth="yes"/>
      <point x="9" y="-3"/>
      <point x="16" y="-5"/>
      <point x="27" y="-5" type="curve" smooth="yes"/>
      <point x="59" y="-5"/>
      <point x="60" y="0"/>
    </contour>
  </outline>
</glyph>
<glyph name="X" format="1">
  <advance width="355"/>
  <unicode hex="0058"/>
  <outline>
    <contour>
      <point x="86" y="0" type="curve" smooth="yes"/>
      <point x="104" y="0"/>
      <point x="133" y="0"/>
      <point x="143" y="0" type="curve" smooth="yes"/>
      <point x="151" y="0"/>
      <point x="157" y="1"/>
      <point x="157" y="6" type="curve" smooth="yes"/>
      <point x="157" y="12"/>
      <point x="152" y="15"/>
      <point x="141" y="19" type="curve"/>
      <point x="114" y="25"/>
      <point x="101" y="43"/>
      <point x="101" y="63" type="curve" smooth="yes"/>
      <point x="101" y="70"/>
      <point x="103" y="78"/>
      <point x="105" y="86" type="curve" smooth="yes"/>
      <point x="171" y="273" type="line" smooth="yes"/>
      <point x="174" y="282"/>
      <point x="177" y="282"/>
      <point x="182" y="268" type="curve" smooth="yes"/>
      <point x="256" y="101" type="line"/>
      <point x="261" y="89"/>
      <point x="262" y="78"/>
      <point x="262" y="68" type="curve" smooth="yes"/>
      <point x="262" y="43"/>
      <point x="256" y="27"/>
      <point x="231" y="21" type="curve" smooth="yes"/>
      <point x="224" y="17"/>
      <point x="214" y="14"/>
      <point x="214" y="8" type="curve" smooth="yes"/>
      <point x="214" y="3"/>
      <point x="219" y="1"/>
      <point x="227" y="1" type="curve" smooth="yes"/>
      <point x="237" y="1"/>
      <point x="255" y="2"/>
      <point x="273" y="2" type="curve" smooth="yes"/>
      <point x="295" y="2"/>
      <point x="325" y="-4"/>
      <point x="338" y="-4" type="curve" smooth="yes"/>
      <point x="345" y="-4"/>
      <point x="350" y="-2"/>
      <point x="350" y="3" type="curve" smooth="yes"/>
      <point x="350" y="9"/>
      <point x="345" y="12"/>
      <point x="333" y="16" type="curve" smooth="yes"/>
      <point x="322" y="21"/>
      <point x="301" y="57"/>
      <point x="286" y="99" type="curve" smooth="yes"/>
      <point x="205" y="318" type="line"/>
      <point x="201" y="333"/>
      <point x="206" y="336"/>
      <point x="211" y="358" type="curve" smooth="yes"/>
      <point x="264" y="536" type="line" smooth="yes"/>
      <point x="282" y="600"/>
      <point x="305" y="628"/>
      <point x="332" y="634" type="curve" smooth="yes"/>
      <point x="344" y="638"/>
      <point x="349" y="641"/>
      <point x="349" y="647" type="curve" smooth="yes"/>
      <point x="349" y="652"/>
      <point x="343" y="654"/>
      <point x="332" y="654" type="curve" smooth="yes"/>
      <point x="317" y="654"/>
      <point x="287" y="650"/>
      <point x="265" y="650" type="curve" smooth="yes"/>
      <point x="247" y="650"/>
      <point x="231" y="650"/>
      <point x="218" y="650" type="curve" smooth="yes"/>
      <point x="207" y="650"/>
      <point x="201" y="649"/>
      <point x="201" y="644" type="curve" smooth="yes"/>
      <point x="201" y="638"/>
      <point x="210" y="632"/>
      <point x="218" y="631" type="curve" smooth="yes"/>
      <point x="247" y="628"/>
      <point x="258" y="614"/>
      <point x="258" y="598" type="curve" smooth="yes"/>
      <point x="258" y="585"/>
      <point x="249" y="568"/>
      <point x="245" y="547" type="curve" smooth="yes"/>
      <point x="198" y="383" type="line" smooth="yes"/>
      <point x="194" y="367"/>
      <point x="191" y="365"/>
      <point x="182" y="386" type="curve" smooth="yes"/>
      <point x="106" y="544" type="line" smooth="yes"/>
      <point x="93" y="576"/>
      <point x="88" y="594"/>
      <point x="88" y="606" type="curve" smooth="yes"/>
      <point x="88" y="622"/>
      <point x="104" y="628"/>
      <point x="124" y="634" type="curve" smooth="yes"/>
      <point x="135" y="638"/>
      <point x="140" y="641"/>
      <point x="140" y="646" type="curve" smooth="yes"/>
      <point x="140" y="651"/>
      <point x="135" y="653"/>
      <point x="128" y="653" type="curve" smooth="yes"/>
      <point x="120" y="653"/>
      <point x="104" y="652"/>
      <point x="85" y="652" type="curve" smooth="yes"/>
      <point x="63" y="652"/>
      <point x="36" y="655"/>
      <point x="21" y="655" type="curve" smooth="yes"/>
      <point x="14" y="655"/>
      <point x="9" y="653"/>
      <point x="9" y="648" type="curve" smooth="yes"/>
      <point x="9" y="643"/>
      <point x="15" y="639"/>
      <point x="25" y="635" type="curve" smooth="yes"/>
      <point x="39" y="627"/>
      <point x="48" y="610"/>
      <point x="77" y="542" type="curve" smooth="yes"/>
      <point x="158" y="353" type="line" smooth="yes"/>
      <point x="170" y="326"/>
      <point x="163" y="311"/>
      <point x="155" y="291" type="curve"/>
      <point x="93" y="114" type="line" smooth="yes"/>
      <point x="75" y="59"/>
      <point x="32" y="26"/>
      <point x="19" y="19" type="curve" smooth="yes"/>
      <point x="2" y="13"/>
      <point x="-3" y="8"/>
      <point x="-3" y="2" type="curve" smooth="yes"/>
      <point x="-3" y="-3"/>
      <point x="3" y="-4"/>
      <point x="11" y="-4" type="curve" smooth="yes"/>
      <point x="29" y="-4"/>
      <point x="62" y="0"/>
    </contour>
  </outline>
</glyph>
<glyph name="backslash" format="1">
  <advance width="231"/>
  <unicode hex="005C"/>
  <outline>
    <contour>
      <point x="222" y="-57" type="curve" smooth="yes"/>
      <point x="40" y="648" type="line" smooth="yes"/>
      <point x="40" y="656"/>
      <point x="32" y="664"/>
      <point x="24" y="664" type="curve" smooth="yes"/>
      <point x="17" y="664"/>
      <point x="13" y="663"/>
      <point x="13" y="658" type="curve" smooth="yes"/>
      <point x="196" y="-46" type="line" smooth="yes"/>
      <point x="196" y="-54"/>
      <point x="204" y="-62"/>
      <point x="210" y="-62" type="curve" smooth="yes"/>
      <point x="218" y="-62"/>
      <point x="222" y="-61"/>
    </contour>
  </outline>
</glyph>
<glyph name="c" format="1">
  <advance width="203"/>
  <unicode hex="0063"/>
  <outline>
    <contour>
      <point x="166" y="51" type="curve" smooth="yes"/>
      <point x="171" y="64"/>
      <point x="175" y="80"/>
      <point x="175" y="89" type="curve" smooth="yes"/>
      <point x="176" y="94"/>
      <point x="176" y="98"/>
      <point x="174" y="98" type="curve" smooth="yes"/>
      <point x="171" y="98"/>
      <point x="170" y="95"/>
      <point x="169" y="92" type="curve" smooth="yes"/>
      <point x="153" y="58"/>
      <point x="140" y="44"/>
      <point x="120" y="44" type="curve" smooth="yes"/>
      <point x="80" y="44"/>
      <point x="50" y="113"/>
      <point x="50" y="201" type="curve" smooth="yes"/>
      <point x="50" y="302"/>
      <point x="71" y="371"/>
      <point x="101" y="371" type="curve" smooth="yes"/>
      <point x="114" y="371"/>
      <point x="129" y="344"/>
      <point x="142" y="312" type="curve" smooth="yes"/>
      <point x="145" y="302"/>
      <point x="151" y="298"/>
      <point x="156" y="298" type="curve" smooth="yes"/>
      <point x="167" y="298"/>
      <point x="185" y="320"/>
      <point x="185" y="335" type="curve" smooth="yes"/>
      <point x="185" y="347"/>
      <point x="178" y="360"/>
      <point x="168" y="371" type="curve" smooth="yes"/>
      <point x="156" y="385"/>
      <point x="141" y="394"/>
      <point x="128" y="394" type="curve" smooth="yes"/>
      <point x="49" y="394"/>
      <point x="18" y="306"/>
      <point x="18" y="171" type="curve" smooth="yes"/>
      <point x="18" y="66"/>
      <point x="53" y="-13"/>
      <point x="101" y="-13" type="curve" smooth="yes"/>
      <point x="129" y="-13"/>
      <point x="151" y="10"/>
    </contour>
  </outline>
</glyph>
<glyph name="e" format="1">
  <advance width="209"/>
  <unicode hex="0065"/>
  <outline>
    <contour>
      <point x="188" y="62" type="curve" smooth="yes"/>
      <point x="190" y="73"/>
      <point x="192" y="82"/>
      <point x="192" y="90" type="curve" smooth="yes"/>
      <point x="192" y="94"/>
      <point x="191" y="97"/>
      <point x="189" y="97" type="curve" smooth="yes"/>
      <point x="189" y="97"/>
      <point x="188" y="96"/>
      <point x="185" y="90" type="curve" smooth="yes"/>
      <point x="170" y="62"/>
      <point x="146" y="48"/>
      <point x="120" y="48" type="curve" smooth="yes"/>
      <point x="79" y="48"/>
      <point x="47" y="120"/>
      <point x="47" y="210" type="curve" smooth="yes"/>
      <point x="47" y="236"/>
      <point x="50" y="242"/>
      <point x="59" y="242" type="curve" smooth="yes"/>
      <point x="176" y="242" type="line" smooth="yes"/>
      <point x="189" y="242"/>
      <point x="194" y="252"/>
      <point x="194" y="273" type="curve" smooth="yes"/>
      <point x="194" y="343"/>
      <point x="164" y="392"/>
      <point x="122" y="392" type="curve" smooth="yes"/>
      <point x="61" y="392"/>
      <point x="17" y="308"/>
      <point x="17" y="193" type="curve" smooth="yes"/>
      <point x="17" y="69"/>
      <point x="56" y="-13"/>
      <point x="113" y="-13" type="curve" smooth="yes"/>
      <point x="143" y="-13"/>
      <point x="171" y="15"/>
    </contour>
    <contour>
      <point x="54" y="272" type="curve" smooth="yes"/>
      <point x="54" y="321"/>
      <point x="88" y="376"/>
      <point x="118" y="376" type="curve" smooth="yes"/>
      <point x="148" y="376"/>
      <point x="173" y="338"/>
      <point x="173" y="293" type="curve" smooth="yes"/>
      <point x="173" y="276"/>
      <point x="172" y="268"/>
      <point x="169" y="267" type="curve" smooth="yes"/>
      <point x="154" y="262"/>
      <point x="141" y="261"/>
      <point x="120" y="261" type="curve" smooth="yes"/>
      <point x="59" y="261" type="line" smooth="yes"/>
      <point x="55" y="261"/>
      <point x="54" y="264"/>
    </contour>
  </outline>
</glyph>
<glyph name="f" format="1">
  <advance width="150"/>
  <unicode hex="0066"/>
  <outline>
    <contour>
      <point x="70" y="5" type="curve" smooth="yes"/>
      <point x="84" y="5"/>
      <point x="108" y="0"/>
      <point x="121" y="0" type="curve" smooth="yes"/>
      <point x="127" y="0"/>
      <point x="129" y="1"/>
      <point x="129" y="6" type="curve" smooth="yes"/>
      <point x="129" y="12"/>
      <point x="124" y="14"/>
      <point x="117" y="15" type="curve" smooth="yes"/>
      <point x="89" y="23"/>
      <point x="82" y="27"/>
      <point x="82" y="50" type="curve" smooth="yes"/>
      <point x="82" y="347" type="line" smooth="yes"/>
      <point x="82" y="350"/>
      <point x="83" y="354"/>
      <point x="92" y="354" type="curve" smooth="yes"/>
      <point x="138" y="354" type="line" smooth="yes"/>
      <point x="140" y="354"/>
      <point x="142" y="355"/>
      <point x="143" y="357" type="curve" smooth="yes"/>
      <point x="144" y="362"/>
      <point x="146" y="368"/>
      <point x="146" y="373" type="curve" smooth="yes"/>
      <point x="146" y="376"/>
      <point x="143" y="380"/>
      <point x="139" y="380" type="curve" smooth="yes"/>
      <point x="87" y="380" type="line" smooth="yes"/>
      <point x="83" y="380"/>
      <point x="82" y="381"/>
      <point x="82" y="389" type="curve" smooth="yes"/>
      <point x="82" y="492" type="line" smooth="yes"/>
      <point x="82" y="612"/>
      <point x="109" y="679"/>
      <point x="127" y="679" type="curve" smooth="yes"/>
      <point x="140" y="679"/>
      <point x="147" y="667"/>
      <point x="159" y="640" type="curve" smooth="yes"/>
      <point x="162" y="623"/>
      <point x="169" y="608"/>
      <point x="186" y="608" type="curve" smooth="yes"/>
      <point x="197" y="608"/>
      <point x="209" y="617"/>
      <point x="209" y="647" type="curve" smooth="yes"/>
      <point x="209" y="680"/>
      <point x="187" y="707"/>
      <point x="159" y="707" type="curve" smooth="yes"/>
      <point x="99" y="707"/>
      <point x="48" y="651"/>
      <point x="48" y="433" type="curve" smooth="yes"/>
      <point x="48" y="385" type="line"/>
      <point x="38" y="380"/>
      <point x="31" y="376"/>
      <point x="17" y="369" type="curve" smooth="yes"/>
      <point x="16" y="368"/>
      <point x="14" y="367"/>
      <point x="14" y="366" type="curve" smooth="yes"/>
      <point x="14" y="362"/>
      <point x="20" y="354"/>
      <point x="21" y="354" type="curve"/>
      <point x="33" y="353"/>
      <point x="41" y="353"/>
      <point x="48" y="353" type="curve"/>
      <point x="48" y="50" type="line" smooth="yes"/>
      <point x="48" y="27"/>
      <point x="42" y="22"/>
      <point x="26" y="15" type="curve" smooth="yes"/>
      <point x="19" y="13"/>
      <point x="14" y="12"/>
      <point x="14" y="6" type="curve" smooth="yes"/>
      <point x="14" y="1"/>
      <point x="16" y="0"/>
      <point x="21" y="0" type="curve" smooth="yes"/>
      <point x="35" y="0"/>
      <point x="58" y="5"/>
    </contour>
  </outline>
</glyph>
<glyph name="g" format="1">
  <advance width="186"/>
  <unicode hex="0067"/>
  <outline>
    <contour>
      <point x="187" y="-79" type="curve" smooth="yes"/>
      <point x="185" y="-20"/>
      <point x="172" y="6"/>
      <point x="86" y="21" type="curve" smooth="yes"/>
      <point x="49" y="28"/>
      <point x="33" y="43"/>
      <point x="33" y="70" type="curve" smooth="yes"/>
      <point x="33" y="84"/>
      <point x="45" y="106"/>
      <point x="49" y="118" type="curve"/>
      <point x="60" y="130" type="line"/>
      <point x="52" y="120"/>
      <point x="50" y="105"/>
      <point x="32" y="89" type="curve" smooth="yes"/>
      <point x="19" y="76"/>
      <point x="9" y="66"/>
      <point x="9" y="54" type="curve" smooth="yes"/>
      <point x="9" y="-7"/>
      <point x="23" y="-25"/>
      <point x="86" y="-40" type="curve" smooth="yes"/>
      <point x="148" y="-53"/>
      <point x="155" y="-69"/>
      <point x="158" y="-115" type="curve" smooth="yes"/>
      <point x="161" y="-159"/>
      <point x="151" y="-199"/>
      <point x="144" y="-226" type="curve" smooth="yes"/>
      <point x="134" y="-250"/>
      <point x="115" y="-263"/>
      <point x="85" y="-263" type="curve" smooth="yes"/>
      <point x="67" y="-263"/>
      <point x="40" y="-219"/>
      <point x="40" y="-164" type="curve" smooth="yes"/>
      <point x="40" y="-108"/>
      <point x="52" y="-69"/>
      <point x="71" y="-26" type="curve"/>
      <point x="70" y="-24" type="line"/>
      <point x="52" y="-51"/>
      <point x="33" y="-79"/>
      <point x="22" y="-95" type="curve" smooth="yes"/>
      <point x="9" y="-112"/>
      <point x="6" y="-137"/>
      <point x="6" y="-171" type="curve" smooth="yes"/>
      <point x="6" y="-245"/>
      <point x="44" y="-290"/>
      <point x="82" y="-290" type="curve" smooth="yes"/>
      <point x="143" y="-290"/>
      <point x="190" y="-191"/>
    </contour>
    <contour>
      <point x="47" y="256" type="curve" smooth="yes"/>
      <point x="47" y="327"/>
      <point x="64" y="380"/>
      <point x="84" y="380" type="curve" smooth="yes"/>
      <point x="106" y="380"/>
      <point x="123" y="334"/>
      <point x="123" y="262" type="curve" smooth="yes"/>
      <point x="123" y="177"/>
      <point x="110" y="120"/>
      <point x="87" y="120" type="curve" smooth="yes"/>
      <point x="63" y="120"/>
      <point x="47" y="173"/>
    </contour>
    <contour>
      <point x="155" y="280" type="curve" smooth="yes"/>
      <point x="155" y="297"/>
      <point x="157" y="320"/>
      <point x="157" y="332" type="curve" smooth="yes"/>
      <point x="158" y="339"/>
      <point x="163" y="343"/>
      <point x="172" y="343" type="curve" smooth="yes"/>
      <point x="183" y="343" type="line"/>
      <point x="185" y="343"/>
      <point x="186" y="344"/>
      <point x="188" y="346" type="curve" smooth="yes"/>
      <point x="191" y="349"/>
      <point x="192" y="354"/>
      <point x="192" y="359" type="curve" smooth="yes"/>
      <point x="192" y="364"/>
      <point x="190" y="368"/>
      <point x="186" y="368" type="curve" smooth="yes"/>
      <point x="181" y="368"/>
      <point x="167" y="366"/>
      <point x="160" y="366" type="curve" smooth="yes"/>
      <point x="152" y="366"/>
      <point x="144" y="367"/>
      <point x="130" y="376" type="curve" smooth="yes"/>
      <point x="118" y="383"/>
      <point x="105" y="396"/>
      <point x="86" y="396" type="curve" smooth="yes"/>
      <point x="48" y="396"/>
      <point x="12" y="334"/>
      <point x="12" y="246" type="curve" smooth="yes"/>
      <point x="12" y="168"/>
      <point x="47" y="102"/>
      <point x="81" y="102" type="curve" smooth="yes"/>
      <point x="122" y="102"/>
      <point x="155" y="183"/>
    </contour>
  </outline>
</glyph>
<glyph name="p" format="1">
  <advance width="255"/>
  <unicode hex="0070"/>
  <outline>
    <contour>
      <point x="59" y="-282" type="curve" smooth="yes"/>
      <point x="78" y="-282"/>
      <point x="87" y="-285"/>
      <point x="108" y="-285" type="curve" smooth="yes"/>
      <point x="111" y="-285"/>
      <point x="119" y="-285"/>
      <point x="119" y="-279" type="curve" smooth="yes"/>
      <point x="119" y="-273"/>
      <point x="113" y="-270"/>
      <point x="107" y="-267" type="curve"/>
      <point x="96" y="-264"/>
      <point x="77" y="-260"/>
      <point x="77" y="-242" type="curve" smooth="yes"/>
      <point x="77" y="-32" type="line" smooth="yes"/>
      <point x="77" y="-26"/>
      <point x="77" y="30"/>
      <point x="78" y="30" type="curve"/>
      <point x="88" y="5"/>
      <point x="114" y="-14"/>
      <point x="128" y="-14" type="curve" smooth="yes"/>
      <point x="208" y="-14"/>
      <point x="237" y="90"/>
      <point x="237" y="214" type="curve" smooth="yes"/>
      <point x="237" y="303"/>
      <point x="207" y="393"/>
      <point x="158" y="393" type="curve" smooth="yes"/>
      <point x="125" y="393"/>
      <point x="89" y="358"/>
      <point x="78" y="331" type="curve"/>
      <point x="78" y="332"/>
      <point x="78" y="336"/>
      <point x="78" y="341" type="curve" smooth="yes"/>
      <point x="78" y="355"/>
      <point x="82" y="387"/>
      <point x="82" y="398" type="curve" smooth="yes"/>
      <point x="82" y="404"/>
      <point x="81" y="409"/>
      <point x="73" y="409" type="curve" smooth="yes"/>
      <point x="68" y="409"/>
      <point x="65" y="407"/>
      <point x="62" y="403" type="curve"/>
      <point x="47" y="389"/>
      <point x="33" y="373"/>
      <point x="26" y="358" type="curve" smooth="yes"/>
      <point x="19" y="355"/>
      <point x="17" y="353"/>
      <point x="17" y="347" type="curve" smooth="yes"/>
      <point x="17" y="342"/>
      <point x="19" y="341"/>
      <point x="25" y="338" type="curve" smooth="yes"/>
      <point x="44" y="333"/>
      <point x="42" y="323"/>
      <point x="42" y="281" type="curve" smooth="yes"/>
      <point x="42" y="-242" type="line" smooth="yes"/>
      <point x="42" y="-260"/>
      <point x="31" y="-264"/>
      <point x="20" y="-267" type="curve"/>
      <point x="14" y="-270"/>
      <point x="8" y="-273"/>
      <point x="8" y="-279" type="curve" smooth="yes"/>
      <point x="8" y="-285"/>
      <point x="15" y="-285"/>
      <point x="19" y="-285" type="curve" smooth="yes"/>
      <point x="38" y="-285"/>
      <point x="41" y="-282"/>
    </contour>
    <contour>
      <point x="78" y="155" type="curve" smooth="yes"/>
      <point x="78" y="179"/>
      <point x="79" y="249"/>
      <point x="79" y="301" type="curve" smooth="yes"/>
      <point x="79" y="314"/>
      <point x="110" y="348"/>
      <point x="134" y="348" type="curve" smooth="yes"/>
      <point x="170" y="348"/>
      <point x="200" y="306"/>
      <point x="200" y="182" type="curve" smooth="yes"/>
      <point x="200" y="53"/>
      <point x="180" y="4"/>
      <point x="136" y="4" type="curve" smooth="yes"/>
      <point x="102" y="4"/>
      <point x="78" y="53"/>
    </contour>
  </outline>
</glyph>
<glyph name="s" format="1">
  <advance width="214"/>
  <unicode hex="0073"/>
  <outline>
    <contour>
      <point x="200" y="96" type="curve" smooth="yes"/>
      <point x="200" y="135"/>
      <point x="189" y="158"/>
      <point x="143" y="196" type="curve" smooth="yes"/>
      <point x="73" y="255"/>
      <point x="64" y="275"/>
      <point x="64" y="313" type="curve" smooth="yes"/>
      <point x="64" y="358"/>
      <point x="98" y="378"/>
      <point x="121" y="378" type="curve" smooth="yes"/>
      <point x="141" y="378"/>
      <point x="155" y="353"/>
      <point x="164" y="299" type="curve" smooth="yes"/>
      <point x="166" y="290"/>
      <point x="177" y="290"/>
      <point x="182" y="290" type="curve" smooth="yes"/>
      <point x="184" y="290"/>
      <point x="192" y="292"/>
      <point x="192" y="297" type="curve" smooth="yes"/>
      <point x="192" y="327"/>
      <point x="182" y="362"/>
      <point x="177" y="376" type="curve"/>
      <point x="167" y="385"/>
      <point x="150" y="394"/>
      <point x="124" y="394" type="curve" smooth="yes"/>
      <point x="68" y="394"/>
      <point x="33" y="350"/>
      <point x="33" y="298" type="curve" smooth="yes"/>
      <point x="33" y="258"/>
      <point x="44" y="226"/>
      <point x="103" y="179" type="curve" smooth="yes"/>
      <point x="151" y="138"/>
      <point x="164" y="121"/>
      <point x="164" y="82" type="curve" smooth="yes"/>
      <point x="164" y="33"/>
      <point x="130" y="0"/>
      <point x="106" y="0" type="curve" smooth="yes"/>
      <point x="81" y="0"/>
      <point x="51" y="28"/>
      <point x="42" y="96" type="curve"/>
      <point x="39" y="107"/>
      <point x="36" y="109"/>
      <point x="28" y="109" type="curve" smooth="yes"/>
      <point x="18" y="109"/>
      <point x="16" y="106"/>
      <point x="16" y="96" type="curve"/>
      <point x="16" y="75"/>
      <point x="18" y="34"/>
      <point x="22" y="20" type="curve"/>
      <point x="39" y="-2"/>
      <point x="66" y="-14"/>
      <point x="93" y="-14" type="curve" smooth="yes"/>
      <point x="151" y="-14"/>
      <point x="200" y="31"/>
    </contour>
  </outline>
</glyph>
<glyph name="w" format="1">
  <advance width="351"/>
  <unicode hex="0077"/>
  <outline>
    <contour>
      <point x="127" y="-16" type="curve"/>
      <point x="161" y="230" type="line" smooth="yes"/>
      <point x="161" y="237"/>
      <point x="164" y="240"/>
      <point x="165" y="240" type="curve" smooth="yes"/>
      <point x="166" y="241"/>
      <point x="167" y="237"/>
      <point x="168" y="232" type="curve" smooth="yes"/>
      <point x="209" y="-16" type="line"/>
      <point x="213" y="-20"/>
      <point x="219" y="-23"/>
      <point x="224" y="-23" type="curve" smooth="yes"/>
      <point x="235" y="-23"/>
      <point x="240" y="-20"/>
      <point x="245" y="-16" type="curve"/>
      <point x="312" y="301" type="line" smooth="yes"/>
      <point x="325" y="349"/>
      <point x="333" y="368"/>
      <point x="347" y="370" type="curve"/>
      <point x="353" y="372"/>
      <point x="358" y="374"/>
      <point x="358" y="380" type="curve" smooth="yes"/>
      <point x="358" y="385"/>
      <point x="351" y="385"/>
      <point x="347" y="385" type="curve" smooth="yes"/>
      <point x="335" y="385"/>
      <point x="324" y="382"/>
      <point x="305" y="382" type="curve" smooth="yes"/>
      <point x="286" y="382"/>
      <point x="279" y="385"/>
      <point x="264" y="385" type="curve" smooth="yes"/>
      <point x="261" y="385"/>
      <point x="254" y="385"/>
      <point x="254" y="380" type="curve" smooth="yes"/>
      <point x="254" y="374"/>
      <point x="261" y="372"/>
      <point x="268" y="370" type="curve" smooth="yes"/>
      <point x="291" y="367"/>
      <point x="295" y="351"/>
      <point x="295" y="327" type="curve" smooth="yes"/>
      <point x="295" y="319"/>
      <point x="293" y="306"/>
      <point x="290" y="295" type="curve" smooth="yes"/>
      <point x="246" y="71" type="line" smooth="yes"/>
      <point x="245" y="64"/>
      <point x="243" y="61"/>
      <point x="241" y="61" type="curve" smooth="yes"/>
      <point x="240" y="61"/>
      <point x="238" y="65"/>
      <point x="237" y="72" type="curve" smooth="yes"/>
      <point x="197" y="293" type="line" smooth="yes"/>
      <point x="194" y="306"/>
      <point x="191" y="319"/>
      <point x="191" y="330" type="curve" smooth="yes"/>
      <point x="191" y="350"/>
      <point x="194" y="362"/>
      <point x="208" y="368" type="curve" smooth="yes"/>
      <point x="214" y="372"/>
      <point x="220" y="373"/>
      <point x="220" y="380" type="curve" smooth="yes"/>
      <point x="220" y="385"/>
      <point x="216" y="385"/>
      <point x="213" y="385" type="curve" smooth="yes"/>
      <point x="202" y="385"/>
      <point x="190" y="382"/>
      <point x="172" y="382" type="curve" smooth="yes"/>
      <point x="154" y="382"/>
      <point x="143" y="385"/>
      <point x="134" y="385" type="curve" smooth="yes"/>
      <point x="131" y="385"/>
      <point x="125" y="385"/>
      <point x="125" y="380" type="curve" smooth="yes"/>
      <point x="125" y="373"/>
      <point x="132" y="370"/>
      <point x="137" y="368" type="curve" smooth="yes"/>
      <point x="160" y="361"/>
      <point x="159" y="342"/>
      <point x="159" y="324" type="curve" smooth="yes"/>
      <point x="160" y="305"/>
      <point x="153" y="286"/>
      <point x="150" y="265" type="curve" smooth="yes"/>
      <point x="122" y="87" type="line" smooth="yes"/>
      <point x="122" y="84"/>
      <point x="120" y="83"/>
      <point x="120" y="83" type="curve" smooth="yes"/>
      <point x="119" y="83"/>
      <point x="118" y="84"/>
      <point x="117" y="87" type="curve" smooth="yes"/>
      <point x="74" y="305" type="line" smooth="yes"/>
      <point x="73" y="313"/>
      <point x="71" y="323"/>
      <point x="71" y="332" type="curve" smooth="yes"/>
      <point x="71" y="350"/>
      <point x="73" y="366"/>
      <point x="86" y="369" type="curve"/>
      <point x="92" y="372"/>
      <point x="98" y="374"/>
      <point x="98" y="380" type="curve" smooth="yes"/>
      <point x="98" y="385"/>
      <point x="92" y="385"/>
      <point x="89" y="385" type="curve" smooth="yes"/>
      <point x="75" y="385"/>
      <point x="62" y="382"/>
      <point x="49" y="382" type="curve" smooth="yes"/>
      <point x="38" y="382"/>
      <point x="27" y="385"/>
      <point x="14" y="385" type="curve" smooth="yes"/>
      <point x="11" y="385"/>
      <point x="5" y="385"/>
      <point x="5" y="380" type="curve" smooth="yes"/>
      <point x="5" y="374"/>
      <point x="12" y="372"/>
      <point x="17" y="369" type="curve"/>
      <point x="27" y="365"/>
      <point x="33" y="346"/>
      <point x="40" y="321" type="curve" smooth="yes"/>
      <point x="93" y="-16" type="line"/>
      <point x="99" y="-20"/>
      <point x="107" y="-23"/>
      <point x="112" y="-23" type="curve" smooth="yes"/>
      <point x="121" y="-23"/>
      <point x="123" y="-20"/>
    </contour>
  </outline>
</glyph>
<glyph name="x" format="1">
  <advance width="271"/>
  <unicode hex="0078"/>
  <outline>
    <contour>
      <point x="63" y="1" type="curve" smooth="yes"/>
      <point x="71" y="1"/>
      <point x="75" y="-2"/>
      <point x="81" y="-3" type="curve" smooth="yes"/>
      <point x="83" y="-4"/>
      <point x="93" y="-3"/>
      <point x="93" y="2" type="curve" smooth="yes"/>
      <point x="93" y="8"/>
      <point x="85" y="11"/>
      <point x="81" y="13" type="curve"/>
      <point x="65" y="15"/>
      <point x="57" y="16"/>
      <point x="56" y="23" type="curve" smooth="yes"/>
      <point x="56" y="28"/>
      <point x="59" y="35"/>
      <point x="64" y="47" type="curve" smooth="yes"/>
      <point x="129" y="190" type="line" smooth="yes"/>
      <point x="131" y="195"/>
      <point x="131" y="196"/>
      <point x="133" y="190" type="curve" smooth="yes"/>
      <point x="197" y="56" type="line" smooth="yes"/>
      <point x="201" y="48"/>
      <point x="204" y="41"/>
      <point x="204" y="34" type="curve" smooth="yes"/>
      <point x="204" y="26"/>
      <point x="203" y="16"/>
      <point x="183" y="13" type="curve" smooth="yes"/>
      <point x="176" y="11"/>
      <point x="171" y="10"/>
      <point x="171" y="3" type="curve" smooth="yes"/>
      <point x="171" y="1"/>
      <point x="173" y="-3"/>
      <point x="178" y="-3" type="curve" smooth="yes"/>
      <point x="185" y="-3"/>
      <point x="216" y="-2"/>
      <point x="224" y="-2" type="curve" smooth="yes"/>
      <point x="239" y="-2"/>
      <point x="245" y="-4"/>
      <point x="258" y="-4" type="curve" smooth="yes"/>
      <point x="261" y="-4"/>
      <point x="268" y="-4"/>
      <point x="268" y="1" type="curve" smooth="yes"/>
      <point x="268" y="7"/>
      <point x="263" y="7"/>
      <point x="258" y="10" type="curve" smooth="yes"/>
      <point x="253" y="12"/>
      <point x="252" y="23"/>
      <point x="244" y="42" type="curve" smooth="yes"/>
      <point x="174" y="199" type="line" smooth="yes"/>
      <point x="173" y="204"/>
      <point x="173" y="208"/>
      <point x="175" y="213" type="curve" smooth="yes"/>
      <point x="218" y="325" type="line" smooth="yes"/>
      <point x="226" y="355"/>
      <point x="233" y="366"/>
      <point x="255" y="369" type="curve"/>
      <point x="261" y="370"/>
      <point x="267" y="373"/>
      <point x="267" y="380" type="curve" smooth="yes"/>
      <point x="267" y="385"/>
      <point x="261" y="385"/>
      <point x="256" y="385" type="curve" smooth="yes"/>
      <point x="247" y="385"/>
      <point x="230" y="382"/>
      <point x="210" y="382" type="curve" smooth="yes"/>
      <point x="202" y="382"/>
      <point x="193" y="384"/>
      <point x="187" y="384" type="curve" smooth="yes"/>
      <point x="185" y="384"/>
      <point x="175" y="385"/>
      <point x="175" y="378" type="curve" smooth="yes"/>
      <point x="175" y="372"/>
      <point x="182" y="371"/>
      <point x="187" y="369" type="curve"/>
      <point x="202" y="368"/>
      <point x="210" y="364"/>
      <point x="211" y="355" type="curve" smooth="yes"/>
      <point x="211" y="349"/>
      <point x="209" y="342"/>
      <point x="205" y="333" type="curve"/>
      <point x="157" y="225" type="line" smooth="yes"/>
      <point x="156" y="221"/>
      <point x="155" y="220"/>
      <point x="153" y="225" type="curve" smooth="yes"/>
      <point x="101" y="326" type="line"/>
      <point x="95" y="339"/>
      <point x="90" y="349"/>
      <point x="90" y="355" type="curve" smooth="yes"/>
      <point x="90" y="363"/>
      <point x="90" y="368"/>
      <point x="105" y="371" type="curve" smooth="yes"/>
      <point x="109" y="373"/>
      <point x="114" y="374"/>
      <point x="114" y="378" type="curve" smooth="yes"/>
      <point x="114" y="384"/>
      <point x="105" y="383"/>
      <point x="101" y="383" type="curve" smooth="yes"/>
      <point x="95" y="383"/>
      <point x="78" y="382"/>
      <point x="71" y="382" type="curve" smooth="yes"/>
      <point x="59" y="382"/>
      <point x="44" y="385"/>
      <point x="33" y="385" type="curve" smooth="yes"/>
      <point x="32" y="385"/>
      <point x="27" y="385"/>
      <point x="27" y="379" type="curve" smooth="yes"/>
      <point x="27" y="373"/>
      <point x="34" y="371"/>
      <point x="37" y="369" type="curve" smooth="yes"/>
      <point x="46" y="365"/>
      <point x="55" y="352"/>
      <point x="68" y="326" type="curve" smooth="yes"/>
      <point x="116" y="213" type="line" smooth="yes"/>
      <point x="118" y="209"/>
      <point x="116" y="204"/>
      <point x="118" y="203" type="curve"/>
      <point x="57" y="56" type="line" smooth="yes"/>
      <point x="44" y="27"/>
      <point x="40" y="17"/>
      <point x="18" y="11" type="curve" smooth="yes"/>
      <point x="12" y="9"/>
      <point x="6" y="7"/>
      <point x="6" y="1" type="curve" smooth="yes"/>
      <point x="6" y="-4"/>
      <point x="12" y="-4"/>
      <point x="16" y="-4" type="curve" smooth="yes"/>
      <point x="25" y="-4"/>
      <point x="43" y="1"/>
    </contour>
  </outline>
</glyph>
<glyph name="braceleft" format="1">
  <advance width="257"/>
  <unicode hex="007B"/>
  <outline>
    <contour>
      <point x="206" y="-138" type="curve" smooth="yes"/>
      <point x="145" y="-134"/>
      <point x="112" y="-122"/>
      <point x="113" y="-78" type="curve" smooth="yes"/>
      <point x="117" y="-31"/>
      <point x="129" y="-10"/>
      <point x="129" y="78" type="curve" smooth="yes"/>
      <point x="129" y="153"/>
      <point x="119" y="192"/>
      <point x="82" y="226" type="curve" smooth="yes"/>
      <point x="81" y="253"/>
      <point x="91" y="277"/>
      <point x="61" y="281" type="curve"/>
      <point x="99" y="297"/>
      <point x="107" y="324"/>
      <point x="107" y="362" type="curve"/>
      <point x="130" y="396"/>
      <point x="120" y="451"/>
      <point x="120" y="518" type="curve" smooth="yes"/>
      <point x="120" y="585"/>
      <point x="157" y="616"/>
      <point x="218" y="646" type="curve" smooth="yes"/>
      <point x="228" y="700"/>
      <point x="239" y="697"/>
      <point x="235" y="706" type="curve" smooth="yes"/>
      <point x="234" y="713"/>
      <point x="227" y="716"/>
      <point x="221" y="716" type="curve" smooth="yes"/>
      <point x="165" y="713"/>
      <point x="104" y="692"/>
      <point x="99" y="635" type="curve" smooth="yes"/>
      <point x="93" y="592"/>
      <point x="90" y="550"/>
      <point x="90" y="475" type="curve" smooth="yes"/>
      <point x="90" y="412"/>
      <point x="69" y="375"/>
      <point x="37" y="342" type="curve" smooth="yes"/>
      <point x="28" y="305"/>
      <point x="50" y="288"/>
      <point x="29" y="284" type="curve" smooth="yes"/>
      <point x="24" y="278"/>
      <point x="30" y="273"/>
      <point x="36" y="272" type="curve" smooth="yes"/>
      <point x="62" y="267"/>
      <point x="88" y="243"/>
      <point x="94" y="206" type="curve" smooth="yes"/>
      <point x="118" y="163"/>
      <point x="80" y="138"/>
      <point x="80" y="50" type="curve" smooth="yes"/>
      <point x="80" y="-31"/>
      <point x="141" y="-68"/>
      <point x="197" y="-100" type="curve" smooth="yes"/>
      <point x="202" y="-138"/>
      <point x="219" y="-146"/>
      <point x="229" y="-144" type="curve" smooth="yes"/>
      <point x="230" y="-137"/>
      <point x="217" y="-138"/>
    </contour>
  </outline>
</glyph>
<glyph name="asciitilde" format="1">
  <advance width="266"/>
  <unicode hex="007E"/>
  <outline>
    <contour>
      <point x="244" y="338" type="curve" smooth="yes"/>
      <point x="244" y="350"/>
      <point x="244" y="356"/>
      <point x="228" y="356" type="curve" smooth="yes"/>
      <point x="227" y="356"/>
      <point x="212" y="287"/>
      <point x="181" y="287" type="curve" smooth="yes"/>
      <point x="176" y="287"/>
      <point x="165" y="303"/>
      <point x="151" y="319" type="curve" smooth="yes"/>
      <point x="134" y="340"/>
      <point x="113" y="363"/>
      <point x="89" y="363" type="curve" smooth="yes"/>
      <point x="44" y="363"/>
      <point x="16" y="292"/>
      <point x="16" y="278" type="curve" smooth="yes"/>
      <point x="16" y="267"/>
      <point x="17" y="263"/>
      <point x="29" y="263" type="curve" smooth="yes"/>
      <point x="34" y="263"/>
      <point x="49" y="333"/>
      <point x="89" y="333" type="curve" smooth="yes"/>
      <point x="101" y="333"/>
      <point x="113" y="316"/>
      <point x="127" y="299" type="curve" smooth="yes"/>
      <point x="142" y="279"/>
      <point x="159" y="258"/>
      <point x="176" y="258" type="curve" smooth="yes"/>
      <point x="204" y="258"/>
      <point x="244" y="314"/>
    </contour>
  </outline>
</glyph>
